/* XPM */
static char * big_tree_xpm[] = {
"128 128 45 1",
" 	c #489848",
".	c #459045",
"+	c #282828",
"@	c #283129",
"#	c #3E7D3E",
"$	c #283F2B",
"%	c #285830",
"&	c #285E37",
"*	c #376537",
"=	c #284A2D",
"-	c #28623B",
";	c #286840",
">	c #2D442D",
",	c #28542F",
"'	c #28663E",
")	c #285A32",
"!	c #377D43",
"~	c #816A3E",
"{	c #3F372C",
"]	c #8D7545",
"^	c #A48C5D",
"/	c #443B2B",
"(	c #887040",
"_	c #9D8556",
":	c #605030",
"<	c #665532",
"[	c #332F29",
"}	c #2D6334",
"|	c #28352C",
"1	c #50442D",
"2	c #715E37",
"3	c #5B4D32",
"4	c #7B653B",
"5	c #5B4C2F",
"6	c #846D3E",
"7	c #459347",
"8	c #6C5B39",
"9	c #816E47",
"0	c #A89060",
"a	c #957D4E",
"b	c #37753A",
"c	c #3E8845",
"d	c #2D6F41",
"e	c #285738",
"f	c #28633E",
"                                          ......++++@@@@@@@@@@@@@@@@@@@@@@@@++++......                                          ",
"                                          ......++++@@@@@@@@@@@@@@@@@@@@@@@@++++......                                          ",
"                                      ####++++++$$$$%%%%&&&&&&&&&&&&&&&&%%%%$$$$++++++####                                      ",
"                                      ####++++++$$$$%%%%&&&&&&&&&&&&&&&&%%%%$$$$++++++####                                      ",
"                                    **++========%%%%----;;;;;;;;;;;;;;;;----%%%%========++**                                    ",
"                                    **++========%%%%----;;;;;;;;;;;;;;;;----%%%%========++**                                    ",
"                          >>>>>>>>>>++,,%%%%%%%%'''';;;;;;;;;;;;;;;;;;;;;;;;''''%%%%%%%%,,++>>>>>>>>>>                          ",
"                          >>>>>>>>>>++,,%%%%%%%%'''';;;;;;;;;;;;;;;;;;;;;;;;''''%%%%%%%%,,++>>>>>>>>>>                          ",
"                    ..++++@@@@@@@@@@%%%%%%));;;;;;;;''''%%%%%%%%%%%%%%%%'''';;;;;;;;))%%%%%%@@@@@@@@@@++++..                    ",
"                    ..++++@@@@@@@@@@%%%%%%));;;;;;;;''''%%%%%%%%%%%%%%%%'''';;;;;;;;))%%%%%%@@@@@@@@@@++++..                    ",
"                  ##++++$$%%%%%%%%%%%%&&&&;;;;;;;;--%%%%%%%%%%%%%%%%%%%%%%%%--;;;;;;;;&&&&%%%%%%%%%%%%$$++++##                  ",
"                  ##++++$$%%%%%%%%%%%%&&&&;;;;;;;;--%%%%%%%%%%%%%%%%%%%%%%%%--;;;;;;;;&&&&%%%%%%%%%%%%$$++++##                  ",
"                **++++==%%%%%%%%------;;;;;;;;;;&&%%%%%%%%%%%%%%%%%%%%%%%%%%%%&&;;;;;;;;;;------%%%%%%%%==++++**                ",
"                **++++==%%%%%%%%------;;;;;;;;;;&&%%%%%%%%%%%%%%%%%%%%%%%%%%%%&&;;;;;;;;;;------%%%%%%%%==++++**                ",
"                ++++,,%%%%%%'''';;;;;;;;;;;;))))%%%%%%%%%%''''''''''''%%%%%%%%%%))));;;;;;;;;;;;''''%%%%%%,,++++                ",
"                ++++,,%%%%%%'''';;;;;;;;;;;;))))%%%%%%%%%%''''''''''''%%%%%%%%%%))));;;;;;;;;;;;''''%%%%%%,,++++                ",
"            ..++++@@%%%%));;;;;;;;;;''''%%%%%%%%%%%%));;;;;;;;;;;;;;;;;;;;))%%%%%%%%%%%%'''';;;;;;;;;;))%%%%@@++++..            ",
"            ..++++@@%%%%));;;;;;;;;;''''%%%%%%%%%%%%));;;;;;;;;;;;;;;;;;;;))%%%%%%%%%%%%'''';;;;;;;;;;))%%%%@@++++..            ",
"          ##++++++%%%%%%;;;;;;;;;;--%%%%%%%%%%%%%%&&;;;;;;;;--------;;;;;;;;&&%%%%%%%%%%%%%%--;;;;;;;;;;%%%%%%++++++##          ",
"          ##++++++%%%%%%;;;;;;;;;;--%%%%%%%%%%%%%%&&;;;;;;;;--------;;;;;;;;&&%%%%%%%%%%%%%%--;;;;;;;;;;%%%%%%++++++##          ",
"        **++++++==%%%%--;;;;;;;;;;%%%%%%%%%%%%%%--;;;;;;;;&&%%%%%%%%&&;;;;;;;;--%%%%%%%%%%%%%%;;;;;;;;;;--%%%%==++++++**        ",
"        **++++++==%%%%--;;;;;;;;;;%%%%%%%%%%%%%%--;;;;;;;;&&%%%%%%%%&&;;;;;;;;--%%%%%%%%%%%%%%;;;;;;;;;;--%%%%==++++++**        ",
"      >>++++,,,,%%%%'';;;;;;;;;;))%%%%%%%%%%'''';;;;;;))))%%%%%%%%%%%%))));;;;;;''''%%%%%%%%%%));;;;;;;;;;''%%%%,,,,++++>>      ",
"      >>++++,,,,%%%%'';;;;;;;;;;))%%%%%%%%%%'''';;;;;;))))%%%%%%%%%%%%))));;;;;;''''%%%%%%%%%%));;;;;;;;;;''%%%%,,,,++++>>      ",
"    ..++++%%%%%%%%;;;;;;;;;;''%%%%%%%%%%));;;;;;;;''%%%%%%));;;;;;;;))%%%%%%'';;;;;;;;))%%%%%%%%%%'';;;;;;;;;;%%%%%%%%++++..    ",
"    ..++++%%%%%%%%;;;;;;;;;;''%%%%%%%%%%));;;;;;;;''%%%%%%));;;;;;;;))%%%%%%'';;;;;;;;))%%%%%%%%%%'';;;;;;;;;;%%%%%%%%++++..    ",
"    ++++$$%%%%%%&&;;;;;;;;;;%%%%%%%%%%%%;;;;;;;;;;%%%%%%&&;;;;;;;;;;;;&&%%%%%%;;;;;;;;;;%%%%%%%%%%%%;;;;;;;;;;&&%%%%%%$$++++    ",
"    ++++$$%%%%%%&&;;;;;;;;;;%%%%%%%%%%%%;;;;;;;;;;%%%%%%&&;;;;;;;;;;;;&&%%%%%%;;;;;;;;;;%%%%%%%%%%%%;;;;;;;;;;&&%%%%%%$$++++    ",
"  **++==%%%%%%%%;;;;;;;;;;&&%%%%%%%%%%%%;;;;;;;;;;%%%%%%;;;;;;;;;;;;;;;;%%%%%%;;;;;;;;;;%%%%%%%%%%%%&&;;;;;;;;;;%%%%%%%%==++**  ",
"  **++==%%%%%%%%;;;;;;;;;;&&%%%%%%%%%%%%;;;;;;;;;;%%%%%%;;;;;;;;;;;;;;;;%%%%%%;;;;;;;;;;%%%%%%%%%%%%&&;;;;;;;;;;%%%%%%%%==++**  ",
"  ++++%%%%%%%%'';;;;;;;;;;%%%%%%%%%%%%%%;;;;;;;;;;%%%%%%;;;;;;;;;;;;;;;;%%%%%%;;;;;;;;;;%%%%%%%%%%%%%%;;;;;;;;;;''%%%%%%%%++++  ",
"  ++++%%%%%%%%'';;;;;;;;;;%%%%%%%%%%%%%%;;;;;;;;;;%%%%%%;;;;;;;;;;;;;;;;%%%%%%;;;;;;;;;;%%%%%%%%%%%%%%;;;;;;;;;;''%%%%%%%%++++  ",
"++++%%%%%%%%));;;;;;;;;;%%%%%%%%%%%%%%%%;;;;;;;;;;%%%%%%%%'';;;;;;;;''%%%%%%%%;;;;;;;;;;%%%%%%%%%%%%%%%%;;;;;;;;;;))%%%%%%%%++++",
"++++%%%%%%%%));;;;;;;;;;%%%%%%%%%%%%%%%%;;;;;;;;;;%%%%%%%%'';;;;;;;;''%%%%%%%%;;;;;;;;;;%%%%%%%%%%%%%%%%;;;;;;;;;;))%%%%%%%%++++",
"++++%%%%%%%%;;;;;;;;;;;;%%%%%%%%%%%%%%%%--;;;;;;;;&&%%%%%%%%--------%%%%%%%%&&;;;;;;;;--%%%%%%%%%%%%%%%%;;;;;;;;;;;;%%%%%%%%++++",
"++++%%%%%%%%;;;;;;;;;;;;%%%%%%%%%%%%%%%%--;;;;;;;;&&%%%%%%%%--------%%%%%%%%&&;;;;;;;;--%%%%%%%%%%%%%%%%;;;;;;;;;;;;%%%%%%%%++++",
"++++%%%%%%%%;;;;;;;;;;;;%%%%%%%%%%%%%%%%%%&&;;;;;;;;%%%%%%%%%%%%%%%%%%%%%%%%;;;;;;;;&&%%%%%%%%%%%%%%%%%%;;;;;;;;;;;;%%%%%%%%++++",
"++++%%%%%%%%;;;;;;;;;;;;%%%%%%%%%%%%%%%%%%&&;;;;;;;;%%%%%%%%%%%%%%%%%%%%%%%%;;;;;;;;&&%%%%%%%%%%%%%%%%%%;;;;;;;;;;;;%%%%%%%%++++",
"++++%%%%%%%%;;;;;;;;;;))%%%%%%%%%%%%%%%%%%%%));;;;;;''%%%%%%%%%%%%%%%%%%%%'';;;;;;))%%%%%%%%%%%%%%%%%%%%));;;;;;;;;;%%%%%%%%++++",
"++++%%%%%%%%;;;;;;;;;;))%%%%%%%%%%%%%%%%%%%%));;;;;;''%%%%%%%%%%%%%%%%%%%%'';;;;;;))%%%%%%%%%%%%%%%%%%%%));;;;;;;;;;%%%%%%%%++++",
"++++%%%%%%%%;;;;;;;;;;%%%%%%%%%%%%%%%%%%%%%%%%'';;;;;;;;))))%%%%%%%%))));;;;;;;;''%%%%%%%%%%%%%%%%%%%%%%%%;;;;;;;;;;%%%%%%%%++++",
"++++%%%%%%%%;;;;;;;;;;%%%%%%%%%%%%%%%%%%%%%%%%'';;;;;;;;))))%%%%%%%%))));;;;;;;;''%%%%%%%%%%%%%%%%%%%%%%%%;;;;;;;;;;%%%%%%%%++++",
"++++%%%%%%%%;;;;;;;;;;%%%%%%%%%%%%%%%%%%%%%%%%%%;;;;;;;;;;;;&&&&&&&&;;;;;;;;;;;;%%%%%%%%%%%%%%%%%%%%%%%%%%;;;;;;;;;;%%%%%%%%++++",
"++++%%%%%%%%;;;;;;;;;;%%%%%%%%%%%%%%%%%%%%%%%%%%;;;;;;;;;;;;&&&&&&&&;;;;;;;;;;;;%%%%%%%%%%%%%%%%%%%%%%%%%%;;;;;;;;;;%%%%%%%%++++",
"++++%%%%%%%%;;;;;;;;;;%%%%%%%%%%%%%%%%%%%%%%%%%%&&;;;;;;;;;;;;;;;;;;;;;;;;;;;;&&%%%%%%%%%%%%%%%%%%%%%%%%%%;;;;;;;;;;%%%%%%%%++++",
"++++%%%%%%%%;;;;;;;;;;%%%%%%%%%%%%%%%%%%%%%%%%%%&&;;;;;;;;;;;;;;;;;;;;;;;;;;;;&&%%%%%%%%%%%%%%%%%%%%%%%%%%;;;;;;;;;;%%%%%%%%++++",
"++++%%%%%%%%;;;;;;;;;;%%%%%%%%%%%%%%%%%%%%%%%%%%%%));;;;;;;;;;;;;;;;;;;;;;;;))%%%%%%%%%%%%%%%%%%%%%%%%%%%%;;;;;;;;;;%%%%%%%%++++",
"++++%%%%%%%%;;;;;;;;;;%%%%%%%%%%%%%%%%%%%%%%%%%%%%));;;;;;;;;;;;;;;;;;;;;;;;))%%%%%%%%%%%%%%%%%%%%%%%%%%%%;;;;;;;;;;%%%%%%%%++++",
"++++%%%%%%%%'';;;;;;;;;;%%%%%%%%%%%%%%%%%%%%%%%%%%%%%%'''';;;;;;;;;;;;''''%%%%%%%%%%%%%%%%%%%%%%%%%%%%%%;;;;;;;;;;''%%%%%%%%++++",
"++++%%%%%%%%'';;;;;;;;;;%%%%%%%%%%%%%%%%%%%%%%%%%%%%%%'''';;;;;;;;;;;;''''%%%%%%%%%%%%%%%%%%%%%%%%%%%%%%;;;;;;;;;;''%%%%%%%%++++",
"++++%%%%%%%%%%;;;;;;;;;;&&%%%%%%%%%%%%%%%%%%%%%%%%%%%%%%%%------------%%%%%%%%%%%%%%%%%%%%%%%%%%%%%%%%&&;;;;;;;;;;%%%%%%%%%%++++",
"++++%%%%%%%%%%;;;;;;;;;;&&%%%%%%%%%%%%%%%%%%%%%%%%%%%%%%%%------------%%%%%%%%%%%%%%%%%%%%%%%%%%%%%%%%&&;;;;;;;;;;%%%%%%%%%%++++",
"++++%%%%%%%%%%&&;;;;;;;;;;--%%%%%%%%%%%%%%%%%%%%%%%%%%%%%%%%%%%%%%%%%%%%%%%%%%%%%%%%%%%%%%%%%%%%%%%%--;;;;;;;;;;&&%%%%%%%%%%++++",
"++++%%%%%%%%%%&&;;;;;;;;;;--%%%%%%%%%%%%%%%%%%%%%%%%%%%%%%%%%%%%%%%%%%%%%%%%%%%%%%%%%%%%%%%%%%%%%%%%--;;;;;;;;;;&&%%%%%%%%%%++++",
"++++%%%%%%%%%%%%));;;;;;;;;;''''%%%%%%%%%%%%%%%%%%%%%%%%%%%%%%%%%%%%%%%%%%%%%%%%%%%%%%%%%%%%%%%%'''';;;;;;;;;;))%%%%%%%%%%%%++++",
"++++%%%%%%%%%%%%));;;;;;;;;;''''%%%%%%%%%%%%%%%%%%%%%%%%%%%%%%%%%%%%%%%%%%%%%%%%%%%%%%%%%%%%%%%%'''';;;;;;;;;;))%%%%%%%%%%%%++++",
">>++++%%%%%%%%%%%%%%'';;;;;;;;;;;;;;))))%%%%%%%%%%%%%%%%%%%%%%%%%%%%%%%%%%%%%%%%%%%%%%%%))));;;;;;;;;;;;;;''%%%%%%%%%%%%%%++++>>",
">>++++%%%%%%%%%%%%%%'';;;;;;;;;;;;;;))))%%%%%%%%%%%%%%%%%%%%%%%%%%%%%%%%%%%%%%%%%%%%%%%%))));;;;;;;;;;;;;;''%%%%%%%%%%%%%%++++>>",
"  ++++%%%%%%%%%%%%%%%%--;;;;;;;;;;;;;;;;&&%%%%%%%%%%%%%%%%%%%%%%%%%%%%%%%%%%%%%%%%%%%%&&;;;;;;;;;;;;;;;;--%%%%%%%%%%%%%%%%++++  ",
"  ++++%%%%%%%%%%%%%%%%--;;;;;;;;;;;;;;;;&&%%%%%%%%%%%%%%%%%%%%%%%%%%%%%%%%%%%%%%%%%%%%&&;;;;;;;;;;;;;;;;--%%%%%%%%%%%%%%%%++++  ",
"  ++++$$%%%%%%%%%%%%%%%%;;;;;;;;;;;;;;;;;;--%%%%%%%%%%%%%%%%%%%%%%%%%%%%%%%%%%%%%%%%--;;;;;;;;;;;;;;;;;;%%%%%%%%%%%%%%%%$$++++  ",
"  ++++$$%%%%%%%%%%%%%%%%;;;;;;;;;;;;;;;;;;--%%%%%%%%%%%%%%%%%%%%%%%%%%%%%%%%%%%%%%%%--;;;;;;;;;;;;;;;;;;%%%%%%%%%%%%%%%%$$++++  ",
"  ..++++%%%%%%%%%%%%%%%%));;;;;;;;;;;;;;;;;;''''%%%%%%%%%%%%%%%%%%%%%%%%%%%%%%%%'''';;;;;;;;;;;;;;;;;;))%%%%%%%%%%%%%%%%++++..  ",
"  ..++++%%%%%%%%%%%%%%%%));;;;;;;;;;;;;;;;;;''''%%%%%%%%%%%%%%%%%%%%%%%%%%%%%%%%'''';;;;;;;;;;;;;;;;;;))%%%%%%%%%%%%%%%%++++..  ",
"    ++++,,%%%%%%%%%%%%%%%%'';;;;;;;;;;;;;;;;;;;;))%%%%%%%%%%%%%%%%%%%%%%%%%%%%));;;;;;;;;;;;;;;;;;;;''%%%%%%%%%%%%%%%%,,++++    ",
"    ++++,,%%%%%%%%%%%%%%%%'';;;;;;;;;;;;;;;;;;;;))%%%%%%%%%%%%%%%%%%%%%%%%%%%%));;;;;;;;;;;;;;;;;;;;''%%%%%%%%%%%%%%%%,,++++    ",
"    **++++%%%%%%%%%%%%%%%%%%--;;;;;;;;;;;;;;;;;;;;&&&&%%%%%%%%%%%%%%%%%%%%&&&&;;;;;;;;;;;;;;;;;;;;--%%%%%%%%%%%%%%%%%%++++**    ",
"    **++++%%%%%%%%%%%%%%%%%%--;;;;;;;;;;;;;;;;;;;;&&&&%%%%%%%%%%%%%%%%%%%%&&&&;;;;;;;;;;;;;;;;;;;;--%%%%%%%%%%%%%%%%%%++++**    ",
"      ++++$$%%%%%%%%%%%%%%%%%%&&;;;;;;;;;;;;;;;;;;;;;;--------------------;;;;;;;;;;;;;;;;;;;;;;&&%%%%%%%%%%%%%%%%%%$$++++      ",
"      ++++$$%%%%%%%%%%%%%%%%%%&&;;;;;;;;;;;;;;;;;;;;;;--------------------;;;;;;;;;;;;;;;;;;;;;;&&%%%%%%%%%%%%%%%%%%$$++++      ",
"      ..++++@@%%%%%%%%%%%%%%%%%%));;;;;;;;;;;;;;;;;;;;;;;;;;;;;;;;;;;;;;;;;;;;;;;;;;;;;;;;;;;;))%%%%%%%%%%%%%%%%%%@@++++..      ",
"      ..++++@@%%%%%%%%%%%%%%%%%%));;;;;;;;;;;;;;;;;;;;;;;;;;;;;;;;;;;;;;;;;;;;;;;;;;;;;;;;;;;;))%%%%%%%%%%%%%%%%%%@@++++..      ",
"        >>++++++,,%%%%%%%%%%%%%%%%%%%%%%'''''''';;;;;;;;;;;;;;;;;;;;;;;;;;;;;;;;''''''''%%%%%%%%%%%%%%%%%%%%%%,,++++++>>        ",
"        >>++++++,,%%%%%%%%%%%%%%%%%%%%%%'''''''';;;;;;;;;;;;;;;;;;;;;;;;;;;;;;;;''''''''%%%%%%%%%%%%%%%%%%%%%%,,++++++>>        ",
"          **++++++==%%%%%%%%%%%%%%%%%%%%%%%%%%%%----;;;;;;;;;;;;;;;;;;;;;;;;----%%%%%%%%%%%%%%%%%%%%%%%%%%%%==++++++**          ",
"          **++++++==%%%%%%%%%%%%%%%%%%%%%%%%%%%%----;;;;;;;;;;;;;;;;;;;;;;;;----%%%%%%%%%%%%%%%%%%%%%%%%%%%%==++++++**          ",
"          !!==++++++$$%%%%%%%%%%%%%%%%%%%%%%%%%%%%%%&&;;;;;;;;;;;;;;;;;;;;&&%%%%%%%%%%%%%%%%%%%%%%%%%%%%%%$$++++++==!!          ",
"          !!==++++++$$%%%%%%%%%%%%%%%%%%%%%%%%%%%%%%&&;;;;;;;;;;;;;;;;;;;;&&%%%%%%%%%%%%%%%%%%%%%%%%%%%%%%$$++++++==!!          ",
"          ;;@@~~++++++%%%%%%%%%%%%%%%%%%%%%%%%%%%%%%%%))));;;;;;;;;;;;))))%%%%%%%%%%%%%%%%%%%%%%%%%%%%%%%%++++++~~@@;;          ",
"          ;;@@~~++++++%%%%%%%%%%%%%%%%%%%%%%%%%%%%%%%%))));;;;;;;;;;;;))))%%%%%%%%%%%%%%%%%%%%%%%%%%%%%%%%++++++~~@@;;          ",
"        ..{{]]^^++++++,,%%%%%%%%%%%%%%%%%%%%%%%%%%%%%%%%%%%%%%%%%%%%%%%%%%%%%%%%%%%%%%%%%%%%%%%%%%%%%%%%,,++++++^^]]{{..        ",
"        ..{{]]^^++++++,,%%%%%%%%%%%%%%%%%%%%%%%%%%%%%%%%%%%%%%%%%%%%%%%%%%%%%%%%%%%%%%%%%%%%%%%%%%%%%%%%,,++++++^^]]{{..        ",
"      ##//((__((((++++++==%%%%%%%%%%%%%%%%%%%%%%%%%%%%%%%%%%%%%%%%%%%%%%%%%%%%%%%%%%%%%%%%%%%%%%%%%%%%==++++++((((__((//##      ",
"      ##//((__((((++++++==%%%%%%%%%%%%%%%%%%%%%%%%%%%%%%%%%%%%%%%%%%%%%%%%%%%%%%%%%%%%%%%%%%%%%%%%%%%%==++++++((((__((//##      ",
"      ++::((((((<<<<++++++$$$$%%%%%%%%%%%%%%%%%%%%%%%%%%%%%%%%%%%%%%%%%%%%%%%%%%%%%%%%%%%%%%%%%%%%$$$$++++++<<<<((((((::++      ",
"      ++::((((((<<<<++++++$$$$%%%%%%%%%%%%%%%%%%%%%%%%%%%%%%%%%%%%%%%%%%%%%%%%%%%%%%%%%%%%%%%%%%%%$$$$++++++<<<<((((((::++      ",
"      ,,[[<<<<<<<<<<<<++++++++@@@@@@@@@@@@@@@@@@%%%%%%%%%%%%%%%%%%%%%%%%%%%%%%%%@@@@@@@@@@@@@@@@@@++++++++<<<<<<<<<<<<[[,,      ",
"      ,,[[<<<<<<<<<<<<++++++++@@@@@@@@@@@@@@@@@@%%%%%%%%%%%%%%%%%%%%%%%%%%%%%%%%@@@@@@@@@@@@@@@@@@++++++++<<<<<<<<<<<<[[,,      ",
"        }}||++++++++++<<++++[[[[[[++[[[[[[[[++++++++,,,,,,,,,,,,,,,,,,,,,,,,++++++++[[[[[[[[++[[[[[[++++<<++++++++++||}}        ",
"        }}||++++++++++<<++++[[[[[[++[[[[[[[[++++++++,,,,,,,,,,,,,,,,,,,,,,,,++++++++[[[[[[[[++[[[[[[++++<<++++++++++||}}        ",
"          ;;$$$$$$$$++++<<<<11::::++::::::2233//++++////++++++++++++++++////++++//3322::::::++::::11<<<<++++$$$$$$$$;;          ",
"          ;;$$$$$$$$++++<<<<11::::++::::::2233//++++////++++++++++++++++////++++//3322::::::++::::11<<<<++++$$$$$$$$;;          ",
"          ;;%%%%%%%%==++++++++////++//::::22((4411++//::1111111111111111:://++1144((22:::://++////++++++++==%%%%%%%%;;          ",
"          ;;%%%%%%%%==++++++++////++//::::22((4411++//::1111111111111111:://++1144((22:::://++////++++++++==%%%%%%%%;;          ",
"          ;;%%%%%%%%%%++++5555555555++::::::<<((6655++::66::::::::::::66::++5566((<<::::::++5555555555++++%%%%%%%%%%;;          ",
"          ;;%%%%%%%%%%++++5555555555++::::::<<((6655++::66::::::::::::66::++5566((<<::::::++5555555555++++%%%%%%%%%%;;          ",
"            ;;%%%%%%%%++::6666((((<<::[[55::::::66(([[55::((::::::::((::55[[((66::::::55[[::<<((((6666::++%%%%%%%%;;            ",
"            ;;%%%%%%%%++::6666((((<<::[[55::::::66(([[55::((::::::::((::55[[((66::::::55[[::<<((((6666::++%%%%%%%%;;            ",
"            !!&&%%%%%%++1111::44((((22:://11::::::((::++::44::::::::44::++::((::::::11//::22((((44::1111++%%%%%%&&!!            ",
"            !!&&%%%%%%++1111::44((((22:://11::::::((::++::44::::::::44::++::((::::::11//::22((((44::1111++%%%%%%&&!!            ",
"              ;;%%%%%%++1111//::22((((::::++::::::22::++////////////////++::22::::::++::::((((22:://1111++%%%%%%;;              ",
"              ;;%%%%%%++1111//::22((((::::++::::::22::++////////////////++::22::::::++::::((((22:://1111++%%%%%%;;              ",
"              77%%%%@@55::::55[[::<<((::::++::::::::[[++5555555555555555++[[::::::::++::::((<<::[[55::::55@@%%%%77              ",
"              77%%%%@@55::::55[[::<<((::::++::::::::[[++5555555555555555++[[::::::::++::::((<<::[[55::::55@@%%%%77              ",
"                ,,[[88]]]]<<::::++::::::::++++5555++[[::::<<<<<<<<<<<<::::[[++5555++++::::::::++::::<<]]]]88[[,,                ",
"                ,,[[88]]]]<<::::++::::::::++++5555++[[::::<<<<<<<<<<<<::::[[++5555++++::::::::++::::<<]]]]88[[,,                ",
"                ++99000000((::::++11::::11++++++++++::::22((((((((((((22::::++++++++++11::::11++::::((00000099++                ",
"                ++99000000((::::++11::::11++++++++++::::22((((((((((((22::::++++++++++11::::11++::::((00000099++                ",
"                ++0000aaaa((::::++++////++======++++::::2222222222222222::::++++======++////++++::::((aaaa0000++                ",
"                ++0000aaaa((::::++++////++======++++::::2222222222222222::::++++======++////++++::::((aaaa0000++                ",
"                ++]]]]((((<<::[[++++++,,,,%%%%%%++++::::::[[[[[[[[[[[[::::::++++%%%%%%,,,,++++++[[::<<((((]]]]++                ",
"                ++]]]]((((<<::[[++++++,,,,%%%%%%++++::::::[[[[[[[[[[[[::::::++++%%%%%%,,,,++++++[[::<<((((]]]]++                ",
"                ||++55555555++++@@%%%%%%%%%%%%%%%%@@++55[[::<<<<<<<<::[[55++@@%%%%%%%%%%%%%%%%@@++++55555555++||                ",
"                ||++55555555++++@@%%%%%%%%%%%%%%%%@@++55[[::<<<<<<<<::[[55++@@%%%%%%%%%%%%%%%%@@++++55555555++||                ",
"                !!**************bb&&&&%%%%%%%%%%%%%%++++::::((aaaa((::::++++%%%%%%%%%%%%%%&&&&bb**************!!                ",
"                !!**************bb&&&&%%%%%%%%%%%%%%++++::::((aaaa((::::++++%%%%%%%%%%%%%%&&&&bb**************!!                ",
"                                  cccc------%%%%%%%%==++::44((0000((44::++==%%%%%%%%------cccc                                  ",
"                                  cccc------%%%%%%%%==++::44((0000((44::++==%%%%%%%%------cccc                                  ",
"                                      777777''''%%''%%++::((((]]]]((((::++%%''%%''''777777                                      ",
"                                      777777''''%%''%%++::((((]]]]((((::++%%''%%''''777777                                      ",
"                                                dddd;;||++::66((((66::++||;;dddd                                                ",
"                                                dddd;;||++::66((((66::++||;;dddd                                                ",
"                                                    !!;;++11::4444::11++;;!!                                                    ",
"                                                    !!;;++11::4444::11++;;!!                                                    ",
"                                                      ccee++////////++eecc                                                      ",
"                                                      ccee++////////++eecc                                                      ",
"                                                        77ff++++++++ff77                                                        ",
"                                                        77ff++++++++ff77                                                        "};
