/* XPM */
static char * bottom_xpm[] = {
"64 64 4 1",
" 	c #489848",
".	c #307030",
"+	c #282828",
"@	c #483828",
"                                                                ",
"                                                                ",
"........                ................                ........",
"........                ................                ........",
"............        ........................        ............",
"............        ........................        ............",
"................................................................",
"................................................................",
"................................................................",
"................................................................",
"................................................................",
"................................................................",
"................................................................",
"................................................................",
"................................................................",
"................................................................",
"................................................................",
"................................................................",
"................................................................",
"................................................................",
"................................................................",
"................................................................",
"................................................................",
"................................................................",
"................................................................",
"................................................................",
"................................................................",
"................................................................",
"................................................................",
"................................................................",
"................................................................",
"................................................................",
"++++++....................++++++++++++....................++++++",
"++++++....................++++++++++++....................++++++",
"++++++++++............++++++++++++++++++++............++++++++++",
"++++++++++............++++++++++++++++++++............++++++++++",
"++++++++++++++++++++++++++++++++++++++++++++++++++++++++++++++++",
"++++++++++++++++++++++++++++++++++++++++++++++++++++++++++++++++",
"++++++++++++++++++++++++++++++++++++++++++++++++++++++++++++++++",
"++++++++++++++++++++++++++++++++++++++++++++++++++++++++++++++++",
"++++++++@@@@++++++++@@@@++++++++++++++++@@@@++++++++@@@@++++++++",
"++++++++@@@@++++++++@@@@++++++++++++++++@@@@++++++++@@@@++++++++",
"++++++++++++@@@@@@@@++++++++++++++++++++++++@@@@@@@@++++++++++++",
"++++++++++++@@@@@@@@++++++++++++++++++++++++@@@@@@@@++++++++++++",
"++++++++++++++++++++++++++++++++++++++++++++++++++++++++++++++++",
"++++++++++++++++++++++++++++++++++++++++++++++++++++++++++++++++",
"++++++++++++++++++++++++++++++++++++++++++++++++++++++++++++++++",
"++++++++++++++++++++++++++++++++++++++++++++++++++++++++++++++++",
"@@@@@@@@++++++++++++++++++@@@@@@@@@@@@@@++++++++++++++++++@@@@@@",
"@@@@@@@@++++++++++++++++++@@@@@@@@@@@@@@++++++++++++++++++@@@@@@",
"++++++++@@@@++++++++++@@@@++++++++++++++@@@@++++++++++@@@@++++++",
"++++++++@@@@++++++++++@@@@++++++++++++++@@@@++++++++++@@@@++++++",
"++++++++++++++++++++++++++++++++++++++++++++++++++++++++++++++++",
"++++++++++++++++++++++++++++++++++++++++++++++++++++++++++++++++",
"++++++++++++++++++++++++++++++++++++++++++++++++++++++++++++++++",
"++++++++++++++++++++++++++++++++++++++++++++++++++++++++++++++++",
"@@@@@@@@++++++++++++++++@@@@@@@@@@@@@@@@++++++++++++++++@@@@@@@@",
"@@@@@@@@++++++++++++++++@@@@@@@@@@@@@@@@++++++++++++++++@@@@@@@@",
"++++++++@@@@++++++++@@@@++++++++++++++++@@@@++++++++@@@@++++++++",
"++++++++@@@@++++++++@@@@++++++++++++++++@@@@++++++++@@@@++++++++",
"++++++++++++++++++++++++++++++++++++++++++++++++++++++++++++++++",
"++++++++++++++++++++++++++++++++++++++++++++++++++++++++++++++++",
"++++++++++++++++++++++++++++++++++++++++++++++++++++++++++++++++",
"++++++++++++++++++++++++++++++++++++++++++++++++++++++++++++++++"};
