/* XPM */
static char * chest_xpm[] = {
"32 38 7 1",
" 	c #489848",
".	c #307030",
"+	c #202020",
"@	c #D8B028",
"#	c #A83838",
"$	c #E0E0E0",
"%	c #D86868",
"     ......................     ",
"  ............................  ",
"................................",
"................................",
"................................",
"................................",
"++++++++++++++++++++++++++++++++",
"++++++++++++++++++++++++++++++++",
"++@@++##$$##++@@@@++##$$##++@@++",
"++@@++##$$##++@@@@++##$$##++@@++",
"++@@++##++##++@@@@++##++##++@@++",
"++@@++##++##++@@@@++##++##++@@++",
"++$$++%%%%%%++$$$$++%%%%%%++$$++",
"++$$++%%%%%%++$$$$++%%%%%%++$$++",
"++$$++%%%%%%++$$$$++%%%%%%++$$++",
"++$$++%%%%%%++$$$$++%%%%%%++$$++",
"++$$++######++$$$$++######++$$++",
"++$$++######++$$$$++######++$$++",
"++@@++##$$##++@@@@++##$$##++@@++",
"++@@++##$$##++@@@@++##$$##++@@++",
"++@@++##++##++@@@@++##++##++@@++",
"++@@++##++##++@@@@++##++##++@@++",
"++@@++######++@@@@++######++@@++",
"++@@++######++@@@@++######++@@++",
"++@@++++++++++@@@@++++++++++@@++",
"++@@++++++++++@@@@++++++++++@@++",
"++@@@@@@@@@@$$$$$$$$@@@@@@@@@@++",
"++@@@@@@@@@@$$$$$$$$@@@@@@@@@@++",
"++++++++++++@@++++@@++++++++++++",
"++++++++++++@@++++@@++++++++++++",
"++@@++####++@@@@@@@@++####++@@++",
"++@@++####++@@@@@@@@++####++@@++",
"++@@++++++++++++++++++++++++@@++",
"++@@++++++++++++++++++++++++@@++",
"++@@@@@@@@@@@@@@@@@@@@@@@@@@@@++",
"++@@@@@@@@@@@@@@@@@@@@@@@@@@@@++",
"++++++++++++++++++++++++++++++++",
"++++++++++++++++++++++++++++++++"};
