/* XPM */
static char * corner_bottom_right_xpm[] = {
"64 64 6 1",
" 	c #307030",
".	c #282828",
"+	c #483828",
"@	c #604828",
"#	c #786038",
"$	c #887848",
"                                ..........++++@@......++++++@@++",
"                                ..........++++@@......++++++@@++",
"                            ............++++@@++....++++++@@++..",
"                            ............++++@@++....++++++@@++..",
"                        ..........++++++++@@++....++++@@@@++....",
"                        ..........++++++++@@++....++++@@@@++....",
"                      ..........++++++++@@++....++++@@++++......",
"                      ..........++++++++@@++....++++@@++++......",
"                    ..........++++++++@@++....++++@@++........++",
"                    ..........++++++++@@++....++++@@++........++",
"                    ........++++++@@@@++....++++++@@........++++",
"                    ........++++++@@@@++....++++++@@........++++",
"                  ..........++++@@++........++++@@++........++++",
"                  ..........++++@@++........++++@@++........++++",
"                  ..........++++@@..........++@@++..........++++",
"                  ..........++++@@..........++@@++..........++++",
"                ..........++++@@......++++++@@++..........++++@@",
"                ..........++++@@......++++++@@++..........++++@@",
"            ............++++@@++....++++++@@++..........++++@@++",
"            ............++++@@++....++++++@@++..........++++@@++",
"        ..........++++++++@@++....++++@@@@++......++++++++@@++..",
"        ..........++++++++@@++....++++@@@@++......++++++++@@++..",
"      ..........++++++++@@++....++++@@@@++......++++++++@@++....",
"      ..........++++++++@@++....++++@@@@++......++++++++@@++....",
"      ........++++++++@@++....++++@@@@........++++++++@@++....++",
"      ........++++++++@@++....++++@@@@........++++++++@@++....++",
"    ........++++++@@@@++....++++@@@@........++++++@@@@++....++++",
"    ........++++++@@@@++....++++@@@@........++++++@@@@++....++++",
"    ......++++++@@++........++++@@..........++++@@++........++++",
"    ......++++++@@++........++++@@..........++++@@++........++++",
"    ......++++++@@..........@@++............++++@@..........@@++",
"    ......++++++@@..........@@++............++++@@..........@@++",
"......++++++@@++......++++++@@++..........++++@@..........++++@@",
"......++++++@@++......++++++@@++..........++++@@..........++++@@",
"....++++++@@++......++++++@@++..........++++@@++....++++++++@@@@",
"....++++++@@++......++++++@@++..........++++@@++....++++++++@@@@",
"....++++@@++......++++@@@@++......++++++++@@++....++++++++@@@@..",
"....++++@@++......++++@@@@++......++++++++@@++....++++++++@@@@..",
"....++++++......++++@@++++......++++++++@@++....++++++@@@@@@..++",
"....++++++......++++@@++++......++++++++@@++....++++++@@@@@@..++",
"......++......++++@@++........++++++++@@++....++++@@@@@@++..++++",
"......++......++++@@++........++++++++@@++....++++@@@@@@++..++++",
"............++++++@@........++++++@@@@++....++++@@@@++..++++@@##",
"............++++++@@........++++++@@@@++....++++@@@@++..++++@@##",
"............++++@@++........++++@@++........++++@@++..@@##$$$$$$",
"............++++@@++........++++@@++........++++@@++..@@##$$$$$$",
"..............++++..........++++@@..........++@@@@..@@##$$$$$$$$",
"..............++++..........++++@@..........++@@@@..@@##$$$$$$$$",
"++++++++..............++++++@@++..........++++@@++++##$$$$$$$$$$",
"++++++++..............++++++@@++..........++++@@++++##$$$$$$$$$$",
"........++++........++++++@@++......++++++++@@@@++##$$$$$$$$$$$$",
"........++++........++++++@@++......++++++++@@@@++##$$$$$$$$$$$$",
"..................++++++@@++......++++++++@@@@..##$$$$$$$$$$$$$$",
"..................++++++@@++......++++++++@@@@..##$$$$$$$$$$$$$$",
"..................++++++++......++++++@@@@@@..++$$$$$$$$$$$$$$$$",
"..................++++++++......++++++@@@@@@..++$$$$$$$$$$$$$$$$",
"++++++++............++++......++++@@@@@@++..++++$$$$$$$$$$$$$$$$",
"++++++++............++++......++++@@@@@@++..++++$$$$$$$$$$$$$$$$",
"........++++................++++@@@@++..++++@@##$$$$$$$$$$$$$$$$",
"........++++................++++@@@@++..++++@@##$$$$$$$$$$$$$$$$",
"............................++++@@++..@@##$$$$$$$$$$$$$$$$$$$$$$",
"............................++++@@++..@@##$$$$$$$$$$$$$$$$$$$$$$",
"..............................++@@..@@##$$$$$$$$$$$$$$$$$$$$$$$$",
"..............................++@@..@@##$$$$$$$$$$$$$$$$$$$$$$$$"};
