/* XPM */
static char * flowers_xpm[] = {
"64 64 5 1",
" 	c #489848",
".	c #307030",
"+	c #B0E8B8",
"@	c #508070",
"#	c #285828",
"                                                                ",
"                                                                ",
"                                                                ",
"                                                                ",
"                                                                ",
"                                                                ",
"                                                                ",
"                                                                ",
"                                                                ",
"                                                                ",
"                                                                ",
"                                                                ",
"                                                                ",
"                                                                ",
"                                                                ",
"                                                                ",
"                                                                ",
"                                                                ",
"                                        ....        ....        ",
"                                        ....        ....        ",
"                                          ....    ....          ",
"                                          ....    ....          ",
"                                  ......  ....    ....  ......  ",
"                                  ......  ....    ....  ......  ",
"                                    ......  ..    ..  ......    ",
"                                    ......  ..    ..  ......    ",
"                                      ....            ....      ",
"                                      ....            ....      ",
"                                                                ",
"                                                                ",
"                                                                ",
"                                                                ",
"                                                                ",
"                                                                ",
"      ++++++                                                    ",
"      ++++++                                                    ",
"  ++  ++++++  ++                                                ",
"  ++  ++++++  ++                                                ",
"  ++++@@@@@@++++                                                ",
"  ++++@@@@@@++++                                                ",
"  ##++@@@@@@++##                                                ",
"  ##++@@@@@@++##                                                ",
"  ####++++++####                                                ",
"  ####++++++####                                                ",
"      ######                                                    ",
"      ######                                                    ",
"      ######                                                    ",
"      ######                                                    ",
"                                                                ",
"                                                                ",
"        ....        ....                                        ",
"        ....        ....                                        ",
"          ....    ....                                          ",
"          ....    ....                                          ",
"  ......  ....    ....  ......                                  ",
"  ......  ....    ....  ......                                  ",
"    ......  ..    ..  ......                                    ",
"    ......  ..    ..  ......                                    ",
"      ....            ....                                      ",
"      ....            ....                                      ",
"                                                                ",
"                                                                ",
"                                                                ",
"                                                                "};
