/* XPM */
static char * grass2_xpm[] = {
"64 64 2 1",
" 	c #489848",
".	c #307030",
"                                                                ",
"                                                                ",
"                                                                ",
"                                                                ",
"                                                                ",
"                                                                ",
"                                                                ",
"                                                                ",
"                                                                ",
"                                                                ",
"                                                                ",
"                                                                ",
"                                                                ",
"                                                                ",
"                                                                ",
"                                                                ",
"                                                                ",
"                                                                ",
"                                        ....        ....        ",
"                                        ....        ....        ",
"                                          ....    ....          ",
"                                          ....    ....          ",
"                                  ......  ....    ....  ......  ",
"                                  ......  ....    ....  ......  ",
"                                    ......  ..    ..  ......    ",
"                                    ......  ..    ..  ......    ",
"                                      ....            ....      ",
"                                      ....            ....      ",
"                                                                ",
"                                                                ",
"                                                                ",
"                                                                ",
"                                                                ",
"                                                                ",
"        ....        ....                                        ",
"        ....        ....                                        ",
"          ....    ....                                          ",
"          ....    ....                                          ",
"  ......  ....    ....  ......                                  ",
"  ......  ....    ....  ......                                  ",
"    ......  ..    ..  ......                                    ",
"    ......  ..    ..  ......                                    ",
"      ....            ....                                      ",
"      ....            ....                                      ",
"                                                                ",
"                                                                ",
"                                                                ",
"                                                                ",
"                                                                ",
"                                                                ",
"                                                                ",
"                                                                ",
"                                                                ",
"                                                                ",
"                                                                ",
"                                                                ",
"                                                                ",
"                                                                ",
"                                                                ",
"                                                                ",
"                                                                ",
"                                                                ",
"                                                                ",
"                                                                "};
