/* XPM */
static char * keymid_xpm[] = {
"16 42 4 1",
" 	c #489848",
".	c #282828",
"+	c #F8D038",
"@	c #B88820",
"  ....    ....  ",
"  ....    ....  ",
"..++++....++++..",
"..++++....++++..",
"..@@@@++++++++..",
"..@@@@++++++++..",
"..@@@@....++++..",
"..@@@@....++++..",
"..@@@@....++++..",
"..@@@@....++++..",
"..@@@@++++++++..",
"..@@@@++++++++..",
"  ..@@@@++++..  ",
"  ..@@@@++++..  ",
"    ..@@++..    ",
"    ..@@++..    ",
"    ..@@++..    ",
"    ..@@++..    ",
"    ..@@....    ",
"    ..@@....    ",
"    ..@@++++..  ",
"    ..@@++++..  ",
"    ..@@....    ",
"    ..@@....    ",
"    ..@@++++..  ",
"    ..@@++++..  ",
"    ..@@....    ",
"    ..@@....    ",
"      ..        ",
"      ..        ",
"                ",
"                ",
"                ",
"                ",
"      ....      ",
"      ....      ",
"  ............  ",
"  ............  ",
"  ............  ",
"  ............  ",
"      ....      ",
"      ....      "};
