/* XPM */
static char * left_side_xpm[] = {
"64 64 6 1",
" 	c #604828",
".	c #483828",
"+	c #282828",
"@	c #786038",
"#	c #307030",
"$	c #489848",
"      ....++..@@  ....++++++####$$$$$$$$$$$$$$$$$$$$$$$$$$$$$$$$",
"      ....++..@@  ....++++++####$$$$$$$$$$$$$$$$$$$$$$$$$$$$$$$$",
"      ....++..@@  ....++++++####$$$$$$$$$$$$$$$$$$$$$$$$$$$$$$$$",
"      ....++..@@  ....++++++####$$$$$$$$$$$$$$$$$$$$$$$$$$$$$$$$",
"      ....++..@@  ....++++++####$$$$$$$$$$$$$$$$$$$$$$$$$$$$$$$$",
"      ....++..@@  ....++++++####$$$$$$$$$$$$$$$$$$$$$$$$$$$$$$$$",
"      ....++..@@  ....++++++####$$$$$$$$$$$$$$$$$$$$$$$$$$$$$$$$",
"      ....++..@@  ....++++++####$$$$$$$$$$$$$$$$$$$$$$$$$$$$$$$$",
"      ....++  @@  ....++++++####$$$$$$$$$$$$$$$$$$$$$$$$$$$$$$$$",
"      ....++  @@  ....++++++####$$$$$$$$$$$$$$$$$$$$$$$$$$$$$$$$",
"    ....++  @@      ..++++++++##$$$$$$$$$$$$$$$$$$$$$$$$$$$$$$$$",
"    ....++  @@      ..++++++++##$$$$$$$$$$$$$$$$$$$$$$$$$$$$$$$$",
"  ....++++  @@        ..++++++##$$$$$$$$$$$$$$$$$$$$$$$$$$$$$$$$",
"  ....++++  @@        ..++++++##$$$$$$$$$$$$$$$$$$$$$$$$$$$$$$$$",
"  ....++++  @@        ..++++++++$$$$$$$$$$$$$$$$$$$$$$$$$$$$$$$$",
"  ....++++  @@        ..++++++++$$$$$$$$$$$$$$$$$$$$$$$$$$$$$$$$",
"  ....++++  @@        ....++++++$$$$$$$$$$$$$$$$$$$$$$$$$$$$$$$$",
"  ....++++  @@        ....++++++$$$$$$$$$$$$$$$$$$$$$$$$$$$$$$$$",
"  ....++++  @@        ....++++++$$$$$$$$$$$$$$$$$$$$$$$$$$$$$$$$",
"  ....++++  @@        ....++++++$$$$$$$$$$$$$$$$$$$$$$$$$$$$$$$$",
"    ....++..@@        ....++++++$$$$$$$$$$$$$$$$$$$$$$$$$$$$$$$$",
"    ....++..@@        ....++++++$$$$$$$$$$$$$$$$$$$$$$$$$$$$$$$$",
"    ....++..  @@      ....++++++$$$$$$$$$$$$$$$$$$$$$$$$$$$$$$$$",
"    ....++..  @@      ....++++++$$$$$$$$$$$$$$$$$$$$$$$$$$$$$$$$",
"      ..++++  @@      ....++++++$$$$$$$$$$$$$$$$$$$$$$$$$$$$$$$$",
"      ..++++  @@      ....++++++$$$$$$$$$$$$$$$$$$$$$$$$$$$$$$$$",
"      ....++..@@      ....++++++$$$$$$$$$$$$$$$$$$$$$$$$$$$$$$$$",
"      ....++..@@      ....++++++$$$$$$$$$$$$$$$$$$$$$$$$$$$$$$$$",
"      ....++..@@    ......++++++$$$$$$$$$$$$$$$$$$$$$$$$$$$$$$$$",
"      ....++..@@    ......++++++$$$$$$$$$$$$$$$$$$$$$$$$$$$$$$$$",
"      ....++..@@  ........++++##$$$$$$$$$$$$$$$$$$$$$$$$$$$$$$$$",
"      ....++..@@  ........++++##$$$$$$$$$$$$$$$$$$$$$$$$$$$$$$$$",
"      ....++..@@  ....++++++####$$$$$$$$$$$$$$$$$$$$$$$$$$$$$$$$",
"      ....++..@@  ....++++++####$$$$$$$$$$$$$$$$$$$$$$$$$$$$$$$$",
"      ....++..@@  ....++++++####$$$$$$$$$$$$$$$$$$$$$$$$$$$$$$$$",
"      ....++..@@  ....++++++####$$$$$$$$$$$$$$$$$$$$$$$$$$$$$$$$",
"      ....++..@@  ....++++++####$$$$$$$$$$$$$$$$$$$$$$$$$$$$$$$$",
"      ....++..@@  ....++++++####$$$$$$$$$$$$$$$$$$$$$$$$$$$$$$$$",
"      ....++..@@  ....++++++####$$$$$$$$$$$$$$$$$$$$$$$$$$$$$$$$",
"      ....++..@@  ....++++++####$$$$$$$$$$$$$$$$$$$$$$$$$$$$$$$$",
"      ....++  @@  ....++++++####$$$$$$$$$$$$$$$$$$$$$$$$$$$$$$$$",
"      ....++  @@  ....++++++####$$$$$$$$$$$$$$$$$$$$$$$$$$$$$$$$",
"    ....++  @@      ..++++++++##$$$$$$$$$$$$$$$$$$$$$$$$$$$$$$$$",
"    ....++  @@      ..++++++++##$$$$$$$$$$$$$$$$$$$$$$$$$$$$$$$$",
"  ....++++  @@        ..++++++##$$$$$$$$$$$$$$$$$$$$$$$$$$$$$$$$",
"  ....++++  @@        ..++++++##$$$$$$$$$$$$$$$$$$$$$$$$$$$$$$$$",
"  ....++++  @@        ..++++++++$$$$$$$$$$$$$$$$$$$$$$$$$$$$$$$$",
"  ....++++  @@        ..++++++++$$$$$$$$$$$$$$$$$$$$$$$$$$$$$$$$",
"  ....++++  @@        ....++++++$$$$$$$$$$$$$$$$$$$$$$$$$$$$$$$$",
"  ....++++  @@        ....++++++$$$$$$$$$$$$$$$$$$$$$$$$$$$$$$$$",
"  ....++++  @@        ....++++++$$$$$$$$$$$$$$$$$$$$$$$$$$$$$$$$",
"  ....++++  @@        ....++++++$$$$$$$$$$$$$$$$$$$$$$$$$$$$$$$$",
"    ....++..@@        ....++++++$$$$$$$$$$$$$$$$$$$$$$$$$$$$$$$$",
"    ....++..@@        ....++++++$$$$$$$$$$$$$$$$$$$$$$$$$$$$$$$$",
"    ....++..  @@      ....++++++$$$$$$$$$$$$$$$$$$$$$$$$$$$$$$$$",
"    ....++..  @@      ....++++++$$$$$$$$$$$$$$$$$$$$$$$$$$$$$$$$",
"      ..++++  @@      ....++++++$$$$$$$$$$$$$$$$$$$$$$$$$$$$$$$$",
"      ..++++  @@      ....++++++$$$$$$$$$$$$$$$$$$$$$$$$$$$$$$$$",
"      ....++..@@      ....++++++$$$$$$$$$$$$$$$$$$$$$$$$$$$$$$$$",
"      ....++..@@      ....++++++$$$$$$$$$$$$$$$$$$$$$$$$$$$$$$$$",
"      ....++..@@    ......++++++$$$$$$$$$$$$$$$$$$$$$$$$$$$$$$$$",
"      ....++..@@    ......++++++$$$$$$$$$$$$$$$$$$$$$$$$$$$$$$$$",
"      ....++..@@  ........++++##$$$$$$$$$$$$$$$$$$$$$$$$$$$$$$$$",
"      ....++..@@  ........++++##$$$$$$$$$$$$$$$$$$$$$$$$$$$$$$$$"};
