/* XPM */
static char * link_face_xpm[] = {
"32 48 15 1",
" 	c #489848",
".	c #282828",
"+	c #509010",
"@	c #78B820",
"#	c #F87800",
"$	c #F0A068",
"%	c #E860B0",
"&	c #B86820",
"*	c #F8F8F8",
"=	c #40D870",
"-	c #389068",
";	c #885828",
">	c #E09050",
",	c #F0D840",
"'	c #C01820",
"                                ",
"                                ",
"            ........            ",
"            ........            ",
"          ..++++@@++....        ",
"          ..++++@@++....        ",
"        ..++++@@@@@@@@++..      ",
"        ..++++@@@@@@@@++..      ",
"  ..  ....##++++@@++##..++....  ",
"  ..  ....##++++@@++##..++....  ",
"..$$..%%....########....++..$$..",
"..$$..%%....########....++..$$..",
"..$$..%%%%%%........%%%%....$$..",
"..$$..%%%%%%........%%%%....$$..",
"..&&$$..%%%%%%%%%%%%%%%%..$$&&..",
"..&&$$..%%%%%%%%%%%%%%%%..$$&&..",
"..&&..%%................%%..&&..",
"..&&..%%................%%..&&..",
"  ..&&..&&****&&&&****&&..&&..  ",
"  ..&&..&&****&&&&****&&..&&..  ",
"    ..&&&&**..$$$$..**&&&&..    ",
"    ..&&&&**..$$$$..**&&&&..    ",
"    ....&&$$..$$$$..$$&&....    ",
"    ....&&$$..$$$$..$$&&....    ",
"  ..==--..&&$$$$$$$$&&..--==..  ",
"  ..==--..&&$$$$$$$$&&..--==..  ",
"..;;..----....&&&&....----..;;..",
"..;;..----....&&&&....----..;;..",
"..;;;;..--==--....--==--..;;;;..",
"..;;;;..--==--....--==--..;;;;..",
"..>>....----==========--....>>..",
"..>>....----==========--....>>..",
"..>>>>..------====------..>>>>..",
"..>>>>..------====------..>>>>..",
"..>>..--,,,,..,,,,..,,,,--..>>..",
"..>>..--,,,,..,,,,..,,,,--..>>..",
"  ......----,,,,,,,,----......  ",
"  ......----,,,,,,,,----......  ",
"    ..''....--------....''..    ",
"    ..''....--------....''..    ",
"      ..##''........''##..      ",
"      ..##''........''##..      ",
"        ......    ......        ",
"        ......    ......        ",
"                                ",
"                                ",
"                                ",
"                                "};
