/* XPM */
static char * right_side_xpm[] = {
"64 64 6 1",
" 	c #489848",
".	c #307030",
"+	c #282828",
"@	c #483828",
"#	c #604828",
"$	c #786038",
"                                ....++++++@@@@##$$@@++@@@@######",
"                                ....++++++@@@@##$$@@++@@@@######",
"                                ....++++++@@@@##$$@@++@@@@######",
"                                ....++++++@@@@##$$@@++@@@@######",
"                                ....++++++@@@@##$$@@++@@@@######",
"                                ....++++++@@@@##$$@@++@@@@######",
"                                ....++++++@@@@##$$@@++@@@@######",
"                                ....++++++@@@@##$$@@++@@@@######",
"                                ....++++++@@@@##$$##++@@@@######",
"                                ....++++++@@@@##$$##++@@@@######",
"                                ..++++++++@@######$$##++@@@@####",
"                                ..++++++++@@######$$##++@@@@####",
"                                ..++++++@@########$$##++++@@@@##",
"                                ..++++++@@########$$##++++@@@@##",
"                                ++++++++@@########$$##++++@@@@##",
"                                ++++++++@@########$$##++++@@@@##",
"                                ++++++@@@@########$$##++++@@@@##",
"                                ++++++@@@@########$$##++++@@@@##",
"                                ++++++@@@@########$$##++++@@@@##",
"                                ++++++@@@@########$$##++++@@@@##",
"                                ++++++@@@@########$$@@++@@@@####",
"                                ++++++@@@@########$$@@++@@@@####",
"                                ++++++@@@@######$$##@@++@@@@####",
"                                ++++++@@@@######$$##@@++@@@@####",
"                                ++++++@@@@######$$##++++@@######",
"                                ++++++@@@@######$$##++++@@######",
"                                ++++++@@@@######$$@@++@@@@######",
"                                ++++++@@@@######$$@@++@@@@######",
"                                ++++++@@@@@@####$$@@++@@@@######",
"                                ++++++@@@@@@####$$@@++@@@@######",
"                                ..++++@@@@@@@@##$$@@++@@@@######",
"                                ..++++@@@@@@@@##$$@@++@@@@######",
"                                ....++++++@@@@##$$@@++@@@@######",
"                                ....++++++@@@@##$$@@++@@@@######",
"                                ....++++++@@@@##$$@@++@@@@######",
"                                ....++++++@@@@##$$@@++@@@@######",
"                                ....++++++@@@@##$$@@++@@@@######",
"                                ....++++++@@@@##$$@@++@@@@######",
"                                ....++++++@@@@##$$@@++@@@@######",
"                                ....++++++@@@@##$$@@++@@@@######",
"                                ....++++++@@@@##$$##++@@@@######",
"                                ....++++++@@@@##$$##++@@@@######",
"                                ..++++++++@@######$$##++@@@@####",
"                                ..++++++++@@######$$##++@@@@####",
"                                ..++++++@@########$$##++++@@@@##",
"                                ..++++++@@########$$##++++@@@@##",
"                                ++++++++@@########$$##++++@@@@##",
"                                ++++++++@@########$$##++++@@@@##",
"                                ++++++@@@@########$$##++++@@@@##",
"                                ++++++@@@@########$$##++++@@@@##",
"                                ++++++@@@@########$$##++++@@@@##",
"                                ++++++@@@@########$$##++++@@@@##",
"                                ++++++@@@@########$$@@++@@@@####",
"                                ++++++@@@@########$$@@++@@@@####",
"                                ++++++@@@@######$$##@@++@@@@####",
"                                ++++++@@@@######$$##@@++@@@@####",
"                                ++++++@@@@######$$##++++@@######",
"                                ++++++@@@@######$$##++++@@######",
"                                ++++++@@@@######$$@@++@@@@######",
"                                ++++++@@@@######$$@@++@@@@######",
"                                ++++++@@@@@@####$$@@++@@@@######",
"                                ++++++@@@@@@####$$@@++@@@@######",
"                                ..++++@@@@@@@@##$$@@++@@@@######",
"                                ..++++@@@@@@@@##$$@@++@@@@######"};
