/* XPM */
static char * ruby_xpm[] = {
"8 14 5 1",
" 	c #489848",
".	c #282C28",
"+	c #F8FCF8",
"@	c #489438",
"#	c #98D478",
"   ..   ",
"  .+@.  ",
" .++++. ",
".++#@+..",
".+#++@@.",
".#@++@#.",
".#@++@#.",
".+@+#@#.",
".++##@@.",
".++##@@.",
".+##@@@.",
" .##@@. ",
"  .@@.  ",
"   ..   "};
