/* XPM */
static char * tree_xpm[] = {
"64 64 7 1",
" 	c #489848",
".	c #282828",
"+	c #285830",
"@	c #407840",
"#	c #286840",
"$	c #605030",
"%	c #887040",
"                        ................                        ",
"                        ................                        ",
"                  ......++++++++++++++++......                  ",
"                  ......++++++++++++++++......                  ",
"                ..++++++++++++@@@@++++++++++++..                ",
"                ..++++++++++++@@@@++++++++++++..                ",
"            ....++@@@@@@@@++@@@@@@@@++@@@@@@@@++....            ",
"            ....++@@@@@@@@++@@@@@@@@++@@@@@@@@++....            ",
"          ..++++++@@@@@@@@@@@@@@@@@@@@@@@@@@@@++++++..          ",
"          ..++++++@@@@@@@@@@@@@@@@@@@@@@@@@@@@++++++..          ",
"        ..++++++++++@@@@@@@@@@++++@@@@@@@@@@++++++++++..        ",
"        ..++++++++++@@@@@@@@@@++++@@@@@@@@@@++++++++++..        ",
"        ..++++@@@@@@@@@@++++++++++++++++@@@@@@@@@@++++..        ",
"        ..++++@@@@@@@@@@++++++++++++++++@@@@@@@@@@++++..        ",
"      ..++++@@@@@@@@@@@@++++++++++++++++@@@@@@@@@@@@++++..      ",
"      ..++++@@@@@@@@@@@@++++++++++++++++@@@@@@@@@@@@++++..      ",
"      ..++++@@@@@@@@@@++++++++@@@@++++++++@@@@@@@@@@++++..      ",
"      ..++++@@@@@@@@@@++++++++@@@@++++++++@@@@@@@@@@++++..      ",
"      ..++++++++++@@@@++++++@@@@@@@@++++++@@@@++++++++++..      ",
"      ..++++++++++@@@@++++++@@@@@@@@++++++@@@@++++++++++..      ",
"      ..++++++++++@@@@++++++@@@@@@@@++++++@@@@++++++++++..      ",
"      ..++++++++++@@@@++++++@@@@@@@@++++++@@@@++++++++++..      ",
"    ##..++++++++@@@@@@++++++++@@@@++++++++@@@@@@++++++++..##    ",
"    ##..++++++++@@@@@@++++++++@@@@++++++++@@@@@@++++++++..##    ",
"    ##..++++++@@@@@@@@@@++++++++++++++++@@@@@@@@@@++++++..##    ",
"    ##..++++++@@@@@@@@@@++++++++++++++++@@@@@@@@@@++++++..##    ",
"    ##..++++@@@@@@@@@@@@++++++++++++++++@@@@@@@@@@@@++++..##    ",
"    ##..++++@@@@@@@@@@@@++++++++++++++++@@@@@@@@@@@@++++..##    ",
"    ##..++++@@@@@@@@@@@@@@@@++++++++@@@@@@@@@@@@@@@@++++..##    ",
"    ##..++++@@@@@@@@@@@@@@@@++++++++@@@@@@@@@@@@@@@@++++..##    ",
"    ##....++++++++++@@@@@@@@@@++++@@@@@@@@@@++++++++++....##    ",
"    ##....++++++++++@@@@@@@@@@++++@@@@@@@@@@++++++++++....##    ",
"  ##......++++++++@@@@@@@@@@@@@@@@@@@@@@@@@@@@++++++++......##  ",
"  ##......++++++++@@@@@@@@@@@@@@@@@@@@@@@@@@@@++++++++......##  ",
"  ..$$%%....++++++@@@@@@@@++@@@@@@@@++@@@@@@@@++++++....%%$$..  ",
"  ..$$%%....++++++@@@@@@@@++@@@@@@@@++@@@@@@@@++++++....%%$$..  ",
"  ..$$$$......++++@@@@@@++++@@@@@@@@++++@@@@@@++++......$$$$..  ",
"  ..$$$$......++++@@@@@@++++@@@@@@@@++++@@@@@@++++......$$$$..  ",
"  ##..$$........++++@@++++++@@@@@@@@++++++@@++++........$$..##  ",
"  ##..$$........++++@@++++++@@@@@@@@++++++@@++++........$$..##  ",
"    ##......$$....++++++++++++@@@@++++++++++++....$$......##    ",
"    ##......$$....++++++++++++@@@@++++++++++++....$$......##    ",
"      ####..$$$$......++++++++++++++++++++......$$$$..####      ",
"      ####..$$$$......++++++++++++++++++++......$$$$..####      ",
"      ####....$$$$........++++++++++++........$$$$....####      ",
"      ####....$$$$........++++++++++++........$$$$....####      ",
"      ####......$$%%$$....................$$%%$$......####      ",
"      ####......$$%%$$....................$$%%$$......####      ",
"        ##..$$$$..%%%%$$%%............%%$$%%%%..$$$$..##        ",
"        ##..$$$$..%%%%$$%%............%%$$%%%%..$$$$..##        ",
"        ..$$%%$$..$$%%$$%%$$$$....$$$$%%$$%%$$..$$%%$$..        ",
"        ..$$%%$$..$$%%$$%%$$$$....$$$$%%$$%%$$..$$%%$$..        ",
"        ..%%$$$$..$$$$$$%%%%..$$$$..%%%%$$$$$$..$$$$%%..        ",
"        ..%%$$$$..$$$$$$%%%%..$$$$..%%%%$$$$$$..$$$$%%..        ",
"        ..............$$$$..$$%%%%$$..$$$$..............        ",
"        ..............$$$$..$$%%%%$$..$$$$..............        ",
"          ##########........$$%%%%$$........##########          ",
"          ##########........$$%%%%$$........##########          ",
"                ##########..$$%%%%$$..##########                ",
"                ##########..$$%%%%$$..##########                ",
"                    ########..$$$$..########                    ",
"                    ########..$$$$..########                    ",
"                            ##....##                            ",
"                            ##....##                            "};
