/* XPM */
static char * tree3_xpm[] = {
"64 64 8 1",
" 	c #489848",
".	c #407840",
"+	c #285830",
"@	c #282828",
"#	c #605030",
"$	c #A89060",
"%	c #286840",
"&	c #887040",
"                ..........++@@@@@@@@++..........                ",
"                ..........++@@@@@@@@++..........                ",
"          ..............++@@##$$$$##@@++..............          ",
"          ..............++@@##$$$$##@@++..............          ",
"  ....................++@@##$$$$$$$$##@@++....................  ",
"  ....................++@@##$$$$$$$$##@@++....................  ",
"..%%++@@@@@@@@++..++@@@@################@@@@++..++@@@@@@@@++%%..",
"..%%++@@@@@@@@++..++@@@@################@@@@++..++@@@@@@@@++%%..",
"%%++@@&&&&&&&&@@@@@@&&$$$$$$$$$$$$$$$$$$$$&&@@@@@@&&&&&&&&@@++%%",
"%%++@@&&&&&&&&@@@@@@&&$$$$$$$$$$$$$$$$$$$$&&@@@@@@&&&&&&&&@@++%%",
"%%++@@&&&&$$$$####&&$$$$&&&&&&&&&&&&&&&&$$$$&&####$$$$&&&&@@++%%",
"%%++@@&&&&$$$$####&&$$$$&&&&&&&&&&&&&&&&$$$$&&####$$$$&&&&@@++%%",
"%%++@@##&&&&####$$$$$$&&&&$$$$$$$$$$$$&&&&$$$$$$####&&&&##@@++%%",
"%%++@@##&&&&####$$$$$$&&&&$$$$$$$$$$$$&&&&$$$$$$####&&&&##@@++%%",
"  %%@@@@######$$$$&&&&&&$$$$&&&&&&&&$$$$&&&&&&$$$$######@@@@%%  ",
"  %%@@@@######$$$$&&&&&&$$$$&&&&&&&&$$$$&&&&&&$$$$######@@@@%%  ",
"  %%++@@@@##$$$$&&&&$$####&&&&&&&&&&&&####$$&&&&$$$$##@@@@++%%  ",
"  %%++@@@@##$$$$&&&&$$####&&&&&&&&&&&&####$$&&&&$$$$##@@@@++%%  ",
"    %%++@@$$$$&&&&$$$$&&####&&$$$$&&####&&$$$$&&&&$$$$@@++%%    ",
"    %%++@@$$$$&&&&$$$$&&####&&$$$$&&####&&$$$$&&&&$$$$@@++%%    ",
"      ++@@$$&&&&$$$$&&&&&&####$$$$####&&&&&&$$$$&&&&$$@@++      ",
"      ++@@$$&&&&$$$$&&&&&&####$$$$####&&&&&&$$$$&&&&$$@@++      ",
"      @@@@$$&&&&$$$$&&&&$$##@@####@@##$$&&&&$$$$&&&&$$@@@@      ",
"      @@@@$$&&&&$$$$&&&&$$##@@####@@##$$&&&&$$$$&&&&$$@@@@      ",
"    @@##@@$$&&&&$$$$&&&&$$##@@@@@@@@##$$&&&&$$$$&&&&$$@@##@@    ",
"    @@##@@$$&&&&$$$$&&&&$$##@@@@@@@@##$$&&&&$$$$&&&&$$@@##@@    ",
"  @@&&##@@$$&&&&$$$$&&&&$$##@@@@@@@@##$$&&&&$$$$&&&&$$@@##&&@@  ",
"  @@&&##@@$$&&&&$$$$&&&&$$##@@@@@@@@##$$&&&&$$$$&&&&$$@@##&&@@  ",
"@@&&$$##@@$$&&&&$$$$&&&&$$##@@####@@##$$&&&&$$$$&&&&$$@@##$$&&@@",
"@@&&$$##@@$$&&&&$$$$&&&&$$##@@####@@##$$&&&&$$$$&&&&$$@@##$$&&@@",
"@@&&$$##@@$$&&&&$$$$$$&&##@@##$$$$##@@##&&$$$$$$&&&&$$@@##$$&&@@",
"@@&&$$##@@$$&&&&$$$$$$&&##@@##$$$$##@@##&&$$$$$$&&&&$$@@##$$&&@@",
"@@##&&####@@$$&&&&$$$$####&&&&$$$$&&&&####$$$$&&&&$$@@####&&##@@",
"@@##&&####@@$$&&&&$$$$####&&&&$$$$&&&&####$$$$&&&&$$@@####&&##@@",
"++@@@@####@@$$$$&&&&####$$$$&&&&&&&&$$$$####&&&&$$$$@@####@@@@++",
"++@@@@####@@$$$$&&&&####$$$$&&&&&&&&$$$$####&&&&$$$$@@####@@@@++",
"++%%++@@####@@$$$$&&&&&&&&$$$$&&&&$$$$&&&&&&&&$$$$@@####@@++%%++",
"++%%++@@####@@$$$$&&&&&&&&$$$$&&&&$$$$&&&&&&&&$$$$@@####@@++%%++",
"  %%++++@@##@@@@$$$$$$$$&&&&$$$$$$$$&&&&$$$$$$$$@@@@##@@++++%%  ",
"  %%++++@@##@@@@$$$$$$$$&&&&$$$$$$$$&&&&$$$$$$$$@@@@##@@++++%%  ",
"    %%%%++@@@@##@@####$$$$&&&&&&&&&&&&$$$$####@@##@@@@++%%%%    ",
"    %%%%++@@@@##@@####$$$$&&&&&&&&&&&&$$$$####@@##@@@@++%%%%    ",
"      %%++@@&&&&##@@####$$$$&&&&&&&&$$$$####@@##&&&&@@++%%      ",
"      %%++@@&&&&##@@####$$$$&&&&&&&&$$$$####@@##&&&&@@++%%      ",
"        @@@@&&&&&&##@@######$$$$$$$$######@@##&&&&&&@@@@        ",
"        @@@@&&&&&&##@@######$$$$$$$$######@@##&&&&&&@@@@        ",
"      ++@@####&&&&####@@################@@####&&&&####@@++      ",
"      ++@@####&&&&####@@################@@####&&&&####@@++      ",
"      @@&&&&##########@@####@@@@@@@@####@@##########&&&&@@      ",
"      @@&&&&##########@@####@@@@@@@@####@@##########&&&&@@      ",
"    @@&&&&&&&&##@@##@@@@##@@########@@##@@@@##@@##&&&&&&&&@@    ",
"    @@&&&&&&&&##@@##@@@@##@@########@@##@@@@##@@##&&&&&&&&@@    ",
"    @@&&&&&&&&##@@@@++@@@@####&&&&####@@@@++@@@@##&&&&&&&&@@    ",
"    @@&&&&&&&&##@@@@++@@@@####&&&&####@@@@++@@@@##&&&&&&&&@@    ",
"    @@&&&&##@@##@@++++++@@####&&&&####@@++++++@@##@@##&&&&@@    ",
"    @@&&&&##@@##@@++++++@@####&&&&####@@++++++@@##@@##&&&&@@    ",
"    @@##@@++++@@++++%%++++@@########@@++++%%++++@@++++@@##@@    ",
"    @@##@@++++@@++++%%++++@@########@@++++%%++++@@++++@@##@@    ",
"    ++++%%++%%++%%%%  %%%%@@##&&&&##@@%%%%  %%%%++%%++%%++++    ",
"    ++++%%++%%++%%%%  %%%%@@##&&&&##@@%%%%  %%%%++%%++%%++++    ",
"          %%  %%          ++@@####@@++          %%  %%          ",
"          %%  %%          ++@@####@@++          %%  %%          ",
"                            ++@@@@++                            ",
"                            ++@@@@++                            "};
